<svg width="128" height="24" viewBox="0 0 128 24" fill="none" xmlns="http://www.w3.org/2000/svg">
<rect width="128" height="24" fill="white"/>
<path d="M4 18.6V10.9941C4 10.3576 4.25286 9.74714 4.70294 9.29706L10.2971 3.70294C10.7471 3.25286 11.3635 3 12 3C12.6365 3 13.2529 3.25286 13.7029 3.70294L19.2971 9.29706C19.7471 9.74714 20 10.3576 20 10.9941V18.6C20 19.9255 18.9255 21 17.6 21H6.4C5.07452 21 4 19.9255 4 18.6Z" fill="#002FFF"/>
<path d="M9 15L12 12L15 15" stroke="white" stroke-width="2" stroke-linecap="round" stroke-linejoin="round"/>
<path d="M32.3125 16.2812C33.2656 16.2812 34.0208 15.9297 34.5781 15.2266C35.1406 14.5234 35.4219 13.5234 35.4219 12.2266C35.4219 10.9349 35.1406 9.9375 34.5781 9.23438C34.0208 8.52604 33.2656 8.17188 32.3125 8.17188C31.3594 8.17188 30.599 8.52344 30.0312 9.22656C29.4635 9.92969 29.1797 10.9297 29.1797 12.2266C29.1797 13.5234 29.4635 14.5234 30.0312 15.2266C30.599 15.9297 31.3594 16.2812 32.3125 16.2812ZM37.8281 12.2266C37.8281 14.2943 37.2474 15.8776 36.0859 16.9766C35.2161 17.8724 33.9583 18.3203 32.3125 18.3203C30.6667 18.3203 29.4089 17.8724 28.5391 16.9766C27.3724 15.8776 26.7891 14.2943 26.7891 12.2266C26.7891 10.1172 27.3724 8.53385 28.5391 7.47656C29.4089 6.58073 30.6667 6.13281 32.3125 6.13281C33.9583 6.13281 35.2161 6.58073 36.0859 7.47656C37.2474 8.53385 37.8281 10.1172 37.8281 12.2266ZM43.5475 9.26562C44.0735 9.26562 44.5501 9.35677 44.9772 9.53906C45.4095 9.72135 45.7636 10 46.0397 10.375C46.2741 10.6927 46.4173 11.0208 46.4694 11.3594C46.5215 11.6927 46.5475 12.2396 46.5475 13V18H44.2741V12.8203C44.2741 12.362 44.1959 11.9922 44.0397 11.7109C43.8366 11.3151 43.4511 11.1172 42.8834 11.1172C42.2949 11.1172 41.847 11.3151 41.5397 11.7109C41.2376 12.1016 41.0866 12.6615 41.0866 13.3906V18H38.8678V6.52344H41.0866V10.5938C41.4095 10.099 41.7819 9.75521 42.2037 9.5625C42.6308 9.36458 43.0787 9.26562 43.5475 9.26562ZM51.9472 6.48438H54.4706L59.0566 14.5234V6.48438H61.2987V18H58.8925L54.1894 9.82031V18H51.9472V6.48438ZM66.5494 16.4297C67.2004 16.4297 67.7004 16.1979 68.0494 15.7344C68.3983 15.2708 68.5728 14.612 68.5728 13.7578C68.5728 12.9036 68.3983 12.2474 68.0494 11.7891C67.7004 11.3255 67.2004 11.0938 66.5494 11.0938C65.8983 11.0938 65.3957 11.3255 65.0416 11.7891C64.6926 12.2474 64.5181 12.9036 64.5181 13.7578C64.5181 14.612 64.6926 15.2708 65.0416 15.7344C65.3957 16.1979 65.8983 16.4297 66.5494 16.4297ZM70.9087 13.7578C70.9087 15.0078 70.5494 16.0781 69.8306 16.9688C69.1119 17.8542 68.0207 18.2969 66.5572 18.2969C65.0936 18.2969 64.0025 17.8542 63.2837 16.9688C62.565 16.0781 62.2056 15.0078 62.2056 13.7578C62.2056 12.5286 62.565 11.4635 63.2837 10.5625C64.0025 9.66146 65.0936 9.21094 66.5572 9.21094C68.0207 9.21094 69.1119 9.66146 69.8306 10.5625C70.5494 11.4635 70.9087 12.5286 70.9087 13.7578ZM71.7531 19.8516C72.201 19.7266 72.5292 19.5182 72.7375 19.2266C72.951 18.9349 73.0734 18.526 73.1047 18H71.7531V15.6719H74.1594V17.6875C74.1594 18.0417 74.1125 18.4115 74.0187 18.7969C73.925 19.1823 73.7505 19.5156 73.4953 19.7969C73.2193 20.099 72.8937 20.3255 72.5187 20.4766C72.149 20.6328 71.8937 20.7109 71.7531 20.7109V19.8516ZM79.6606 18V6.48438H82.0434V10.875H86.5434V6.48438H88.9341V18H86.5434V12.8594H82.0434V18H79.6606ZM94.2394 16.4297C94.8904 16.4297 95.3904 16.1979 95.7394 15.7344C96.0883 15.2708 96.2628 14.612 96.2628 13.7578C96.2628 12.9036 96.0883 12.2474 95.7394 11.7891C95.3904 11.3255 94.8904 11.0938 94.2394 11.0938C93.5883 11.0938 93.0857 11.3255 92.7316 11.7891C92.3826 12.2474 92.2081 12.9036 92.2081 13.7578C92.2081 14.612 92.3826 15.2708 92.7316 15.7344C93.0857 16.1979 93.5883 16.4297 94.2394 16.4297ZM98.5988 13.7578C98.5988 15.0078 98.2394 16.0781 97.5206 16.9688C96.8019 17.8542 95.7107 18.2969 94.2472 18.2969C92.7836 18.2969 91.6925 17.8542 90.9738 16.9688C90.255 16.0781 89.8956 15.0078 89.8956 13.7578C89.8956 12.5286 90.255 11.4635 90.9738 10.5625C91.6925 9.66146 92.7836 9.21094 94.2472 9.21094C95.7107 9.21094 96.8019 9.66146 97.5206 10.5625C98.2394 11.4635 98.5988 12.5286 98.5988 13.7578ZM109.076 9.29688C109.451 9.29688 109.821 9.36979 110.185 9.51562C110.55 9.66146 110.881 9.91667 111.177 10.2812C111.417 10.5781 111.579 10.9427 111.662 11.375C111.714 11.6615 111.74 12.0807 111.74 12.6328L111.724 18H109.443V12.5781C109.443 12.2552 109.391 11.9896 109.287 11.7812C109.089 11.3854 108.724 11.1875 108.193 11.1875C107.579 11.1875 107.154 11.4427 106.92 11.9531C106.8 12.224 106.74 12.5495 106.74 12.9297V18H104.498V12.9297C104.498 12.4245 104.446 12.0573 104.342 11.8281C104.154 11.4167 103.787 11.2109 103.24 11.2109C102.605 11.2109 102.177 11.4167 101.959 11.8281C101.839 12.0625 101.779 12.4115 101.779 12.875V18H99.5212V9.5H101.685V10.7422C101.961 10.2995 102.222 9.98438 102.467 9.79688C102.899 9.46354 103.459 9.29688 104.146 9.29688C104.797 9.29688 105.323 9.4401 105.724 9.72656C106.047 9.99219 106.292 10.3333 106.459 10.75C106.75 10.25 107.112 9.88281 107.545 9.64844C108.003 9.41406 108.513 9.29688 109.076 9.29688ZM116.514 11.0938C115.998 11.0938 115.597 11.2552 115.311 11.5781C115.03 11.901 114.853 12.3385 114.78 12.8906H118.241C118.204 12.3021 118.024 11.8568 117.702 11.5547C117.384 11.2474 116.988 11.0938 116.514 11.0938ZM116.514 9.25781C117.222 9.25781 117.86 9.39062 118.428 9.65625C118.996 9.92188 119.465 10.3411 119.834 10.9141C120.168 11.4193 120.384 12.0052 120.483 12.6719C120.54 13.0625 120.564 13.625 120.553 14.3594H114.725C114.756 15.2135 115.024 15.8125 115.53 16.1562C115.837 16.3698 116.207 16.4766 116.639 16.4766C117.097 16.4766 117.47 16.3464 117.756 16.0859C117.912 15.9453 118.051 15.75 118.17 15.5H120.444C120.386 16.0052 120.123 16.5182 119.655 17.0391C118.926 17.8672 117.905 18.2812 116.592 18.2812C115.509 18.2812 114.553 17.9323 113.725 17.2344C112.897 16.5365 112.483 15.401 112.483 13.8281C112.483 12.3542 112.855 11.224 113.6 10.4375C114.35 9.65104 115.321 9.25781 116.514 9.25781ZM122.14 6.52344H124.585V9.44531L123.952 14.8203H122.788L122.14 9.44531V6.52344ZM122.194 15.7422H124.522V18H122.194V15.7422Z" fill="black"/>
</svg>
